<svg id="Layer_1" data-name="Layer 1" xmlns="http://www.w3.org/2000/svg" xmlns:xlink="http://www.w3.org/1999/xlink" viewBox="0 0 500 500"><defs><style>.cls-1{fill:url(#radial-gradient);}.cls-2{fill:url(#radial-gradient-2);}.cls-3{fill:url(#radial-gradient-3);}.cls-4{fill:url(#radial-gradient-4);}.cls-5{fill:url(#linear-gradient);}.cls-6{fill:url(#linear-gradient-2);}.cls-7{fill:#00aeef;}.cls-8{fill:#ee2a7b;}</style><radialGradient id="radial-gradient" cx="382.29" cy="261.81" r="141.97" gradientUnits="userSpaceOnUse"><stop offset="0" stop-color="#fff"/><stop offset="1" stop-color="#000034"/></radialGradient><radialGradient id="radial-gradient-2" cx="382.28" cy="261.81" r="141.97" xlink:href="#radial-gradient"/><radialGradient id="radial-gradient-3" cx="108.43" cy="261.81" r="118.22" xlink:href="#radial-gradient"/><radialGradient id="radial-gradient-4" cx="382.28" cy="261.81" r="141.96" xlink:href="#radial-gradient"/><linearGradient id="linear-gradient" x1="429.05" y1="435.36" x2="347.32" y2="279.49" gradientUnits="userSpaceOnUse"><stop offset="0" stop-color="#00aeef"/><stop offset="0.13" stop-color="#07a8eb"/><stop offset="0.31" stop-color="#1a96de"/><stop offset="0.53" stop-color="#397aca"/><stop offset="0.77" stop-color="#6352ae"/><stop offset="1" stop-color="#92278f"/></linearGradient><linearGradient id="linear-gradient-2" x1="90.68" y1="250.67" x2="391.76" y2="250.67" gradientUnits="userSpaceOnUse"><stop offset="0" stop-color="#00aeef"/><stop offset="1" stop-color="#ec008c"/></linearGradient></defs><path class="cls-1" d="M246.22,265.38l-.06.46-.06.45c0,.14,0,.28-.08.42q-.27,1.31-.51,2.61c-.15.87-.3,1.74-.44,2.61s-.26,1.73-.37,2.6-.22,1.74-.31,2.6l-.36,3.4c.1-1,.22-2,.35-2.94s.27-2,.42-2.95.32-2,.5-2.95.37-2,.57-2.95a3.7,3.7,0,0,0,.09-.48c0-.16,0-.33.08-.5s0-.35.05-.52,0-.36,0-.54l.11-1.79Z"/><path class="cls-2" d="M237.39,244.27a10.4,10.4,0,0,0-1-.64,8,8,0,0,0-1.09-.48,7.54,7.54,0,0,0-1.13-.3,6.6,6.6,0,0,0-1.17-.1,6.85,6.85,0,0,0-1.66.2,8.53,8.53,0,0,0-1.72.62,10.74,10.74,0,0,0-1.77,1.09,16.85,16.85,0,0,0-1.83,1.58c-.3.31-.59.62-.86.94h0a4.08,4.08,0,0,0-.25.33c-.17.21-.35.42-.5.64h0c-.1.13-.18.28-.28.41s-.26.39-.38.59l0,0c-.09.15-.17.31-.26.47l-.31.56,0,0a1.17,1.17,0,0,1-.05.11c-.1.2-.19.4-.28.6s-.08.19-.12.28a2.72,2.72,0,0,0-.11.25l-.09.22c-.1.25-.2.51-.28.77h0v0c-.08.24-.16.48-.23.72a2,2,0,0,0-.07.26c0,.1-.06.2-.08.3s-.06.19-.08.28-.09.39-.14.59l0,.15v0a.29.29,0,0,1,0,.09c-.05.28-.11.57-.16.86s-.09.59-.13.88,0,.29,0,.43,0,.23,0,.35L221,258c0,.44-.07.89-.09,1.34v.31c0,.1,0,.21,0,.32s0,.49,0,.73c0,.46,0,.92,0,1.38,0,.05,0,.1,0,.16,0,.23,0,.46,0,.7,0,.58,0,1.17.08,1.76,0,.09,0,.17,0,.26s0,.45.05.67l.06.87c0,.16,0,.33,0,.5.13,1.35.26,2.7.41,4.05s.28,2.7.4,4c0,.13,0,.26,0,.38l0,.46c0,.65.1,1.29.13,1.92,0,.27,0,.54,0,.81,0,.61,0,1.22.05,1.82v.25c0,.74,0,1.47-.08,2.19,0,.08,0,.16,0,.24a20.82,20.82,0,0,1-.27,2.26c-.21,1-.46,2.08-.72,3.13,0,.08-.05.16-.07.24-.23.91-.49,1.83-.77,2.74s-.51,1.63-.79,2.44c-.11.33-.21.66-.32,1q-.6,1.71-1.29,3.42c-.08.22-.18.43-.27.64-.38.92-.77,1.85-1.18,2.77L216,303c-.34.73-.69,1.46-1,2.18s-.87,1.71-1.33,2.56l-.13.25c-.56,1-1.12,2-1.71,3l4.09-6.93.7-1.19.67-1.2.14-.27.13-.23c.12-.24.25-.47.38-.7.21-.41.42-.81.62-1.22l-.1.17h0l.1-.17c.06-.11.11-.23.17-.34l.21-.4c.25-.51.48-1,.72-1.53.13-.29.28-.57.41-.86l.09-.2c.37-.82.71-1.63,1-2.45.07-.17.15-.34.22-.52l0,0a.14.14,0,0,1,0-.06c.4-1,.77-2,1.11-3a1.17,1.17,0,0,0,.05-.11l.24-.76c.21-.62.43-1.24.62-1.86,0-.1.05-.2.08-.3s.06-.18.08-.26c.13-.43.25-.86.37-1.29s.16-.58.23-.87l.06-.22a1.94,1.94,0,0,1,0-.2c.11-.43.21-.86.31-1.28s.19-.86.28-1.29l0-.19,0-.2,0-.19,0-.2c0-.34.08-.69.11-1a.91.91,0,0,1,0-.17c0-.07,0-.14,0-.21,0-.23,0-.45,0-.68s0-.71,0-1.08v-.4c0-.23,0-.46,0-.69s0-.62,0-.92l0-.71q0-.86-.12-1.71c0-.11,0-.22,0-.32a.22.22,0,0,1,0-.08v-.06l0-.28c-.11-1.17-.23-2.36-.36-3.55v-.08c-.12-1.17-.24-2.34-.35-3.51,0-.4-.06-.8-.1-1.2l-.06-.83c0-.52,0-1-.07-1.56l0-.62c0-.67,0-1.33,0-2,0-.1,0-.2,0-.3,0-.65.07-1.3.13-1.94,0-.1,0-.21,0-.31.08-.67.18-1.34.31-2a1.24,1.24,0,0,0,0-.16c.06-.26.12-.52.19-.77a2.68,2.68,0,0,1,.07-.27c.08-.29.17-.58.26-.86l0,0c.1-.3.21-.59.33-.88a1.47,1.47,0,0,1,.1-.22c.11-.27.23-.52.35-.78a.93.93,0,0,0,.05-.1c.09-.18.19-.35.29-.53s.15-.27.23-.41.24-.36.36-.54.15-.24.24-.36.3-.4.46-.59.14-.19.22-.28c.24-.28.49-.56.76-.83a14.15,14.15,0,0,1,1.62-1.4,9.21,9.21,0,0,1,1.57-1,6.86,6.86,0,0,1,1.52-.56,6.12,6.12,0,0,1,1.46-.17,5.89,5.89,0,0,1,1,.09,6.67,6.67,0,0,1,1,.26,9.16,9.16,0,0,1,1,.42,8.29,8.29,0,0,1,.92.58Z"/><path class="cls-3" d="M177.8,318.47c.85-.75,1.7-1.52,2.53-2.33l7.74-7.52c-.74.71-1.49,1.39-2.24,2.06-.22.2-.45.39-.68.58-.54.47-1.09.93-1.65,1.37l-.71.57c-.67.52-1.34,1-2,1.49l-.3.21c-.77.54-1.54,1.05-2.32,1.53l-.66.4c-.57.35-1.15.68-1.73,1l-.74.4c-.63.33-1.27.65-1.9.95l-.47.23c-.78.36-1.56.69-2.35,1l-.6.23c-.59.22-1.19.43-1.78.62-.32.1-.63.21-1,.3l-.71.2c-.4.12-.79.22-1.19.31l-.65.16c-.48.11-1,.2-1.42.29l-.41.08c-.61.1-1.22.19-1.83.26l-.16,0c-.6.07-1.19.12-1.79.16h-.09q-.93.06-1.83.06c-.49,0-1,0-1.45,0l-.39,0c-.45,0-.9-.06-1.35-.11h-.11c-.47-.05-.95-.12-1.42-.2l-.36-.06c-.4-.07-.79-.14-1.18-.23l-.26-.05c-.45-.1-.91-.22-1.36-.35l-.33-.1c-.36-.1-.73-.22-1.08-.34l-.33-.11c-.39-.14-.77-.29-1.15-.45l-.24-.09c-.45-.19-.9-.4-1.34-.61l-.38-.2-.93-.49-.47-.28c-.24-.13-.47-.28-.7-.42-.51-.32-1-.66-1.49-1a.71.71,0,0,1-.14-.1c-.53-.39-1-.81-1.55-1.24l-.42-.38c-.38-.34-.75-.7-1.12-1.07l-.39-.39c-.47-.5-.93-1-1.37-1.54l-.17-.23c-.39-.47-.76-1-1.12-1.47l-.36-.52c-.32-.48-.63-1-.94-1.47-.08-.14-.17-.27-.25-.42-.38-.63-.73-1.29-1.07-2l-.23-.48c-.26-.55-.52-1.11-.76-1.69-.1-.23-.2-.47-.29-.71s-.3-.76-.44-1.15-.2-.54-.29-.82-.27-.84-.4-1.26c-.08-.27-.17-.54-.25-.81-.13-.48-.26-1-.38-1.48l-.18-.68c-.17-.74-.33-1.49-.47-2.27,0-.13,0-.27-.07-.41q-.17-.92-.3-1.86c0-.27-.07-.55-.1-.83-.07-.51-.14-1-.19-1.53,0-.33,0-.66-.08-1s-.08-1-.11-1.45,0-.73,0-1.1,0-.95-.06-1.44c0-.74,0-1.48,0-2.23,0-.16,0-.33,0-.49,0-.64,0-1.28,0-1.93l0-.67c0-.81.08-1.62.15-2.45.08-1.14.18-2.32.28-3.52,0-.36.07-.73.11-1.1.08-.89.17-1.79.27-2.71,0-.4.09-.8.13-1.21.13-1.1.26-2.23.41-3.37,0-.19.05-.38.07-.57q.25-2,.57-4c0-.37.12-.75.17-1.12q.24-1.54.51-3.09c.07-.43.14-.86.22-1.29.21-1.19.43-2.38.67-3.57,0-.23.08-.45.13-.67.28-1.4.58-2.8.89-4.21l.27-1.14c.24-1.06.5-2.11.76-3.16.11-.43.22-.87.34-1.31.3-1.16.62-2.32.95-3.47l.21-.74c.23-.78.48-1.55.73-2.33s.45-1.49.69-2.22.54-1.51.81-2.27.5-1.43.76-2.12.6-1.48.9-2.21.55-1.39.85-2.07c0-.08.07-.15.11-.24.56-1.28,1.16-2.54,1.77-3.77a3.24,3.24,0,0,0,.17-.32c.39-.74.78-1.48,1.18-2.19.12-.21.24-.42.35-.63.47-.8.94-1.59,1.42-2.35l.12-.17c.45-.71.92-1.39,1.4-2.05.13-.18.26-.37.4-.55.52-.71,1-1.4,1.6-2.05.68-.81,1.33-1.6,2-2.38l.44-.55.41-.51c.48-.6.94-1.2,1.39-1.79l.22-.3.89-1.2.57-.81.33-.47c.44-.64.86-1.28,1.26-1.9l.15-.25.1-.16c.2-.32.39-.65.58-1l.12-.21c.26-.46.51-.92.75-1.39a.39.39,0,0,0,.06-.11c.1-.18.18-.36.26-.53l.24-.49s0-.07.05-.1c.09-.2.18-.41.26-.61s.14-.29.2-.44a.14.14,0,0,1,0-.06c.11-.26.2-.52.3-.78l.12-.3v0c.13-.37.25-.73.36-1.1v0l0,0,.18-.67c0-.11.05-.22.08-.33a1.89,1.89,0,0,0,0-.23c0-.06,0-.12.05-.18,0-.24.1-.49.14-.74,0,0,0-.06,0-.1s0,0,0-.06,0-.08,0-.12,0-.3.06-.45,0-.38.07-.57v-.08c0-.21,0-.43.05-.64s0-.27,0-.4,0-.1,0-.14v-.11c0-.21,0-.43,0-.64s0-.19,0-.28,0-.13,0-.19a1.27,1.27,0,0,0,0-.2c0-.23,0-.45-.05-.68a.77.77,0,0,1,0-.15,1.1,1.1,0,0,1,0-.18c0-.12,0-.23-.05-.34s-.07-.46-.11-.68v0l0-.17-.15-.71-.06-.22-.09-.34c0-.12-.06-.23-.1-.35l-.15-.46c0-.11-.07-.21-.1-.32s0-.1-.05-.15q-.17-.47-.36-.93v0c-.08-.21-.19-.42-.28-.64s-.17-.39-.27-.59l-.35-.67c-.1-.2-.19-.38-.3-.58v0c-.13-.23-.27-.47-.42-.7s-.22-.39-.34-.58-.31-.48-.47-.72l-.39-.58h0l-.53-.72c-.15-.21-.29-.41-.45-.61s-.4-.52-.61-.77-.3-.39-.47-.58h0c-.26-.31-.54-.62-.81-.93-.13-.15-.25-.3-.39-.45-.42-.47-.86-.94-1.31-1.41L137.83,160c.51.53,1,1.07,1.48,1.59l.52.6.84,1,.5.63.73.91c.16.21.3.41.45.62s.45.59.65.89.29.43.43.65.38.55.55.82l.42.7.44.76c.13.23.24.45.36.68s.27.51.39.76.2.45.31.67l.32.74c.18.42.33.84.47,1.25.05.12.08.24.12.36.1.31.19.62.28.92,0,.13.07.26.1.38.09.36.17.71.24,1.06,0,.06,0,.12,0,.18.08.41.14.81.18,1.21l0,.2c0,.39.07.78.09,1.16a1.48,1.48,0,0,1,0,.21c0,.39,0,.78,0,1.17v.16c0,.41,0,.81-.08,1.22a.43.43,0,0,0,0,.05c0,.39-.09.77-.15,1.15l0,.21c-.07.38-.14.77-.23,1.15l-.06.25q-.14.57-.3,1.14s0,0,0,.06c-.12.43-.27.86-.42,1.29,0,.12-.09.23-.13.35-.12.31-.24.63-.37,1l-.21.49-.36.81-.27.55-.36.73c-.27.52-.55,1.05-.86,1.58l-.12.21q-.37.65-.78,1.29c-.5.8-1,1.62-1.59,2.43-.12.18-.25.36-.38.53-.52.76-1.07,1.52-1.65,2.29l-.25.33c-.65.86-1.33,1.72-2,2.6l-.5.63c-.72.88-1.45,1.77-2.22,2.69-.62.74-1.22,1.52-1.81,2.31l-.22.29-.23.34c-.54.75-1.07,1.52-1.58,2.31l-.11.16a.08.08,0,0,0,0,0c-.55.86-1.09,1.75-1.61,2.66l-.18.3c-.07.13-.14.27-.22.4-.45.82-.9,1.64-1.33,2.49l-.15.28-.06.12-.53,1.08c-.19.39-.38.77-.56,1.16s-.34.75-.51,1.12l-.48,1a.36.36,0,0,1,0,.09c0,.05,0,.11-.07.17-.31.71-.6,1.46-.89,2.19s-.65,1.52-1,2.31l-.06.16c-.3.79-.57,1.6-.86,2.4s-.59,1.58-.86,2.39c0,.06,0,.12,0,.18-.28.81-.52,1.65-.78,2.47s-.53,1.63-.77,2.45a2,2,0,0,0-.07.23c-.08.27-.15.54-.23.82-.37,1.3-.73,2.62-1.08,3.94,0,.21-.12.42-.17.63s-.14.57-.21.85c-.12.48-.25,1-.37,1.44-.17.71-.33,1.42-.49,2.13-.1.43-.21.86-.3,1.29-.34,1.52-.67,3-1,4.56a1.42,1.42,0,0,1,0,.2c-.05.25-.09.5-.14.76-.27,1.35-.52,2.69-.75,4-.09.49-.17,1-.26,1.47s-.17,1-.25,1.46c-.11.68-.21,1.35-.32,2,0,.29-.09.58-.14.86l-.09.66-.12.82q-.23,1.51-.42,3c0,.11,0,.22,0,.33s0,.07,0,.1c-.15,1.12-.28,2.22-.41,3.31,0,.12,0,.24,0,.35s0,.29-.05.44c-.12,1-.23,2-.33,3a1.23,1.23,0,0,0,0,.19v.05c-.1,1.05-.2,2.09-.29,3.1l0,.36,0,.38q-.14,1.52-.24,3c-.05.74-.1,1.48-.14,2.21,0,.19,0,.37,0,.56s0,.5,0,.76,0,.56,0,.84c0,.45,0,.89,0,1.33,0,.19,0,.38,0,.56s0,.16,0,.23c0,.7,0,1.39,0,2.07,0,.07,0,.15,0,.22,0,.56,0,1.11.06,1.65,0,.35,0,.71,0,1.06,0,.06,0,.11,0,.17,0,.56.08,1.11.13,1.66,0,.33,0,.67.08,1,0,0,0,.07,0,.11.06.59.13,1.16.21,1.73,0,.29.06.59.1.88,0,0,0,0,0,.06.11.74.23,1.46.35,2.18,0,.12,0,.25.07.38h0c.15.83.32,1.64.5,2.43a.79.79,0,0,1,0,.13l0,.11c0,.23.12.45.18.67.14.56.28,1.12.43,1.67l.06.22c.07.24.15.46.22.69.15.48.29,1,.45,1.43,0,.1.07.22.1.32s.16.4.23.61c.16.44.33.87.5,1.3l.15.41.18.39c.27.65.56,1.28.85,1.9.09.19.17.37.26.55.39.77.79,1.51,1.21,2.23a.91.91,0,0,1,.07.14c.07.11.15.22.22.34.34.57.7,1.12,1.06,1.65.14.2.27.4.41.59l.32.46c.3.42.62.81.94,1.21l.16.21,0,.05c.5.6,1,1.18,1.55,1.74l.44.44c.42.42.84.83,1.27,1.21l.29.28.18.15c.57.49,1.15,1,1.75,1.41l.15.11c.56.4,1.12.78,1.7,1.15l.23.16.56.32c.17.11.35.21.53.31l.23.13c.27.15.55.29.83.43a3.65,3.65,0,0,0,.34.18.2.2,0,0,0,.08,0l.09.05,1.38.63h0l.29.11c.36.15.72.3,1.08.43l.21.07.37.13.61.21.61.18.38.11.21.06,1.22.31.11,0,.29.06.84.18.49.08.42.07.32.06,1.25.16h.14c.38,0,.75.08,1.12.1l.42,0,.43,0,.43,0h1.22c.37,0,.74,0,1.11,0l1,0h.17l1.13-.08.82-.09.19,0,.12,0c.62-.07,1.25-.16,1.87-.27h.08l.45-.09,1.35-.26.26-.07.21,0,.53-.13.89-.22.46-.13.8-.24c.22-.06.43-.11.64-.18s.29-.11.44-.15c.66-.22,1.33-.46,2-.71l.68-.25c.84-.33,1.67-.68,2.5-1.06l.16-.07.11,0,.42-.21c.71-.34,1.43-.69,2.14-1.07l.85-.46c.65-.36,1.3-.73,1.95-1.12.17-.11.34-.2.52-.3l.23-.16c.85-.53,1.7-1.08,2.55-1.67l.07-.05.34-.25c.76-.54,1.52-1.1,2.27-1.68l.33-.25.48-.39c.62-.5,1.24-1,1.86-1.55Z"/><path class="cls-4" d="M379.41,224.66a107.11,107.11,0,0,0-3.61-21.45c-.58-2.12-1.17-4.42-1.86-6.75a68.52,68.52,0,0,0-2.43-7,33.37,33.37,0,0,0-3.44-6.38,19.63,19.63,0,0,0-4.88-5c-2.58-1.77-4.92-3.27-7-4.75a29.79,29.79,0,0,1-5.28-4.61,16.11,16.11,0,0,1-3.27-5.86,26.47,26.47,0,0,1-1-8.55c0-1.54.06-3.14.13-4.73a44.63,44.63,0,0,1,.44-4.69,20.48,20.48,0,0,1,1.09-4.28,11.24,11.24,0,0,1,2.08-3.49l-12,13.21a9.84,9.84,0,0,0-1.85,3.08,18.61,18.61,0,0,0-1,3.79,37.23,37.23,0,0,0-.38,4.14c-.07,1.41-.09,2.82-.12,4.18a23.3,23.3,0,0,0,.86,7.56,14.36,14.36,0,0,0,2.89,5.19,26.51,26.51,0,0,0,4.66,4.07c1.82,1.31,3.89,2.64,6.17,4.2a17.63,17.63,0,0,1,4.32,4.38,30.46,30.46,0,0,1,3,5.64,59.87,59.87,0,0,1,2.14,6.16c.61,2.06,1.14,4.09,1.65,6a94.75,94.75,0,0,1,3.19,19,103.76,103.76,0,0,1-.54,19.14,115.36,115.36,0,0,1-3.88,18.82,124.4,124.4,0,0,1-6.82,18c-.24.52-.5,1.06-.77,1.6-.09.19-.18.37-.28.56-.18.37-.37.75-.57,1.13s-.24.46-.36.69-.37.72-.57,1.09-.26.5-.4.75-.39.73-.6,1.1l-.44.79-.64,1.15-.46.79q-.35.62-.72,1.23l-.44.75-.87,1.43c-.12.2-.24.4-.37.6l-.16.26c-.54.87-1.11,1.75-1.68,2.63s-1.1,1.66-1.66,2.5c-.39.57-.77,1.15-1.17,1.72-.61.87-1.24,1.74-1.87,2.61-.39.54-.77,1.08-1.18,1.62-.73,1-1.5,2-2.27,2.93-.32.42-.64.83-1,1.24q-1.68,2.09-3.44,4.08l-.44.49c-.44.48-.87,1-1.32,1.45l-.66.7-1.15,1.2-.75.75-1.11,1.1-.78.74-1.13,1-.78.71-1.17,1-.77.65-1.29,1-.67.54c-.58.44-1.16.87-1.74,1.28l-.25.19q-1,.7-2,1.35l-.62.38c-.47.29-.94.58-1.41.85l-.78.43c-.43.24-.85.47-1.28.69l-.84.4-1.24.58-.86.36c-.42.17-.83.33-1.25.48s-.57.21-.86.3c-.6.2-1.21.39-1.81.55l-.24.06c-.64.17-1.28.31-1.93.43l-.18,0c-.73.12-1.45.23-2.18.29h0c-.74.07-1.48.11-2.22.11s-1.45,0-2.18-.11h-.16c-.71-.07-1.43-.18-2.14-.32l-.13,0c-.7-.14-1.39-.32-2.09-.53l-.16-.05c-.69-.21-1.37-.46-2.05-.73l-.2-.08c-.67-.28-1.34-.61-2-1l-.29-.14c-.64-.35-1.29-.74-1.93-1.15l-.54-.36-.48-.33-.75-.55-.46-.35-.81-.65-.39-.32c-.4-.34-.8-.69-1.19-1.06-.83-.77-1.62-1.57-2.4-2.38l-.71-.79c-.52-.57-1-1.15-1.52-1.74l-.77-1q-.68-.86-1.32-1.74c-.24-.32-.47-.65-.7-1-.45-.64-.89-1.3-1.31-2-.17-.27-.35-.54-.52-.82-.58-.95-1.13-1.9-1.65-2.88l-.21-.44c-.44-.84-.86-1.68-1.25-2.54-.16-.34-.3-.68-.45-1-.37-.85-.74-1.7-1.07-2.56l0-.09c-.42-1.09-.8-2.21-1.16-3.33h0l2.23,7.07c.14.44.29.89.44,1.33s.3.89.46,1.33l.42,1.11,0,.09a.76.76,0,0,1,0,.11c.17.44.34.87.52,1.31s.43,1,.65,1.47c.12.27.22.56.34.83.05.11.11.22.17.33.44,1,.91,1.93,1.4,2.87.09.17.17.34.25.5l0,.08c.58,1.08,1.19,2.14,1.82,3.18.05.07.08.15.13.22.15.24.31.47.47.71.35.55.69,1.11,1.05,1.65l.42.58.8,1.11c.48.66,1,1.32,1.49,2,.16.2.31.42.48.63l.39.45c.18.21.34.43.52.64.38.45.8.88,1.2,1.32s.53.6.81.9c.87.92,1.77,1.82,2.7,2.69q.68.63,1.35,1.2l.09.08.36.28c.3.26.6.5.91.74l.17.14.35.26.85.61.25.19.29.19.39.27.45.28.32.21.23.14.75.43.38.23.19.1.77.39.41.22.14.06.8.37.43.19.1,0,.1.05.77.3.4.16.06,0,.27.09c.24.08.47.17.71.24l.2.06.4.12.44.13.36.09.42.11.27.06c.18.05.36.08.55.12l.26.06h.06l.17,0c.33.07.66.12,1,.17l1,.13.29,0h.17l.53.05,1,0h1.81l.86,0,.79-.07h.07l.86-.09,1.46-.22.1,0,.22-.05,1.14-.22,1-.26.26-.07.15,0c.48-.13,1-.28,1.45-.43l.46-.16,1-.34,1.41-.54c.32-.14.65-.27,1-.42.47-.2.94-.42,1.41-.64l.95-.46,1.44-.77.88-.49c.54-.31,1.07-.64,1.61-1,.19-.12.39-.23.58-.36l.11-.07c.76-.49,1.52-1,2.27-1.53.1-.06.19-.14.29-.21.66-.46,1.31-.95,2-1.45.26-.19.51-.4.77-.6l1.13-.9.32-.27.87-.74,1.32-1.14.89-.81,1.28-1.18.87-.83c.43-.42.85-.83,1.27-1.26q.42-.4.84-.84c.44-.44.87-.9,1.3-1.36l.75-.79c.51-.54,1-1.1,1.5-1.65l.45-.49.06-.07c.66-.75,1.31-1.51,2-2.27l.46-.56,1.27-1.53.12-.15c1-1.28,2.05-2.58,3-3.88l.51-.69c1-1.28,1.9-2.56,2.81-3.85l.49-.69c.91-1.31,1.81-2.61,2.66-3.91l.28-.43,1.19-1.82c.44-.69.87-1.38,1.29-2.06l.13-.19.06-.11.42-.69c.33-.53.66-1.07,1-1.6.18-.29.34-.57.51-.86.28-.46.55-.93.81-1.38l.52-.91c.25-.43.49-.86.72-1.28s.34-.6.51-.9l.67-1.24.46-.85.65-1.24c.13-.26.27-.52.39-.77l.66-1.29.31-.62.87-1.82a141.06,141.06,0,0,0,7.71-20.32,131.35,131.35,0,0,0,4.39-21.28A118.79,118.79,0,0,0,379.41,224.66Z"/><path class="cls-5" d="M403.59,224.51a135.55,135.55,0,0,0-8.1-43.06,147.9,147.9,0,0,1-4.38-15.85A118.49,118.49,0,0,0,386.63,150c-1.88-4.76-4.32-8.91-7.87-11.86s-8.21-4.72-14.52-4.72c-.63,0-1.29,0-2,.05s-1.36.09-2.06.17-1.43.16-2.18.28-1.5.24-2.28.4a9.63,9.63,0,0,0-3.84,1.59c24.51,24.39,39.84,59,39.84,97.36,0,66.79-46.32,122.13-106.86,132.12.2.09.4.19.61.27a43.05,43.05,0,0,0,8.3,2.5,44,44,0,0,0,8.38.79,51.72,51.72,0,0,0,14.11-2.05,70.51,70.51,0,0,0,13.7-5.6,97.72,97.72,0,0,0,12.9-8.3,122.17,122.17,0,0,0,11.71-10.16,166.82,166.82,0,0,0,43.75-75.12A151.94,151.94,0,0,0,403.59,224.51Z"/><path class="cls-6" d="M351.92,135.93a8.61,8.61,0,0,0-1.31,1.09,11.92,11.92,0,0,0-2.66,4.86,29.11,29.11,0,0,0-1,6.1c-.16,2.13-.19,4.32-.23,6.41a26.47,26.47,0,0,0,1,8.55,16.11,16.11,0,0,0,3.27,5.86,29.79,29.79,0,0,0,5.28,4.61c2,1.48,4.39,3,7,4.75a19.63,19.63,0,0,1,4.88,5,33.37,33.37,0,0,1,3.44,6.38,68.52,68.52,0,0,1,2.43,7c.69,2.33,1.28,4.63,1.86,6.75a107.11,107.11,0,0,1,3.61,21.45,118.79,118.79,0,0,1-.61,21.66,131.35,131.35,0,0,1-4.39,21.28,141.06,141.06,0,0,1-7.71,20.32,170.26,170.26,0,0,1-24.8,37.66,89.45,89.45,0,0,1-18.19,16.12c-6.44,4.12-13.18,6.66-19.95,6.66a26.21,26.21,0,0,1-5.12-.5,27,27,0,0,1-5.11-1.56,30.87,30.87,0,0,1-5.07-2.71,38.9,38.9,0,0,1-5-4,60.09,60.09,0,0,1-10.6-13.09,67.07,67.07,0,0,1-6.74-15.29,71.84,71.84,0,0,1-2.88-16.43,70.72,70.72,0,0,1,.94-16.47c.76-4.27,1.65-8.37,2.31-12.35a54.08,54.08,0,0,0,.87-11.65,28.46,28.46,0,0,0-2.87-11.23A36.4,36.4,0,0,0,255.61,232a39.61,39.61,0,0,0-5.44-4.06,35.85,35.85,0,0,0-5.68-2.84,32.86,32.86,0,0,0-5.8-1.68,31.15,31.15,0,0,0-5.82-.55,30.34,30.34,0,0,0-10.28,1.79,31.3,31.3,0,0,0-9.18,5.2,34,34,0,0,0-7.34,8.36,39.81,39.81,0,0,0-4.78,11.29,63.14,63.14,0,0,0-1.91,14.35c-.12,4.4.09,8.5.05,12.57A49.53,49.53,0,0,1,198,288.79a44.93,44.93,0,0,1-6.43,13.78,84,84,0,0,1-10.75,13.1,67.7,67.7,0,0,1-9.16,7.64c-.86.6-1.72,1.18-2.58,1.72a52.15,52.15,0,0,1-12.12,5.6,40.08,40.08,0,0,1-11.86,1.87A31.44,31.44,0,0,1,131,329.33a30.68,30.68,0,0,1-11.19-9.49,42.69,42.69,0,0,1-7-15.81,73.61,73.61,0,0,1-1.34-22.1c.41-5.71,1.1-12.23,2.14-19.08a214.23,214.23,0,0,1,4.25-21.07,134.47,134.47,0,0,1,6.77-20.17,67.48,67.48,0,0,1,9.71-16.37,101.32,101.32,0,0,0,8.73-11.67,29.94,29.94,0,0,0,4.39-10.75A19.38,19.38,0,0,0,146.22,172c-1.55-3.75-4.27-7.68-8.39-12-.52-.13-1-.25-1.56-.35s-1.05-.17-1.58-.24-1.07-.11-1.6-.14-1.07,0-1.61,0a28.24,28.24,0,0,0-8.06,1.19,26.78,26.78,0,0,0-7.3,3.47,22.69,22.69,0,0,0-5.7,5.57,20.18,20.18,0,0,0-3.24,7.5,105.76,105.76,0,0,0-1.57,10.57c-.36,3.5-.6,7-.87,10.5s-.55,7-1,10.56a88.52,88.52,0,0,1-2,10.74q-1.31,5.16-2.54,10.34t-2.37,10.38q-1.12,5.2-2.12,10.43c-.65,3.49-1.26,7-1.8,10.49a177.3,177.3,0,0,0-2.24,28.35,102.4,102.4,0,0,0,3.71,27.92c2.57,8.74,6.65,16.67,12.74,23S121.35,351.48,132,354c1,.25,2.07.47,3.11.65s2.07.34,3.11.46,2.07.22,3.11.28,2.07.09,3.1.09a62.48,62.48,0,0,0,26.39-6.2,84.49,84.49,0,0,0,16.74-10.47q3.41-2.69,6.58-5.7A102.93,102.93,0,0,0,212,310.62a84.2,84.2,0,0,0,10-25.19,39.86,39.86,0,0,0,.13-9.86c-.3-3.47-.78-7.06-1-10.58a36.65,36.65,0,0,1,.43-10.15,16.21,16.21,0,0,1,6.31-10.18,10.74,10.74,0,0,1,1.77-1.09,8.53,8.53,0,0,1,1.72-.62,6.85,6.85,0,0,1,1.66-.2,8.53,8.53,0,0,1,6,2.88,22.76,22.76,0,0,1,4.43,7,36,36,0,0,1,2.43,8.54,22.22,22.22,0,0,1,0,7.59,116.33,116.33,0,0,0-2.47,23.37,93.72,93.72,0,0,0,2.7,22.61,82.77,82.77,0,0,0,8.47,21.16,85.81,85.81,0,0,0,14.84,19,57.26,57.26,0,0,0,7.94,6.43,47.84,47.84,0,0,0,7.55,4.11c60.54-10,106.86-65.33,106.86-132.12C391.76,194.9,376.43,160.32,351.92,135.93Z"/><path class="cls-7" d="M10,413.11V86.89H78.31v22.48H35.76V390.63H78.31v22.48Z"/><path class="cls-8" d="M421.69,413.11V390.63h42.55V109.37H421.69V86.89H490V413.11Z"/></svg>